<svg xmlns="http://www.w3.org/2000/svg" xmlns:xlink="http://www.w3.org/1999/xlink" width="50" zoomAndPan="magnify" viewBox="0 0 37.5 37.499999" height="50" preserveAspectRatio="xMidYMid meet" version="1.0"><defs><clipPath id="id1"><path d="M 0 0 L 37.007812 0 L 37.007812 37.007812 L 0 37.007812 Z M 0 0 " clip-rule="nonzero"/></clipPath></defs><g clip-path="url(#id1)"><path fill="#ffffff" d="M 37.5 18.75 C 37.5 29.105469 29.105469 37.5 18.75 37.5 C 8.394531 37.5 0 29.105469 0 18.75 C 0 8.394531 8.394531 0 18.75 0 C 29.105469 0 37.5 8.394531 37.5 18.75 " fill-opacity="1" fill-rule="nonzero"/></g><path fill="#000000" d="M 13.265625 10.207031 C 14.488281 10.207031 15.484375 11.203125 15.484375 12.429688 C 15.484375 13.652344 14.488281 14.648438 13.265625 14.648438 C 12.039062 14.648438 11.042969 13.652344 11.042969 12.429688 C 11.042969 11.203125 12.039062 10.207031 13.265625 10.207031 Z M 13.265625 15.125 C 14.75 15.125 15.957031 13.914062 15.957031 12.429688 C 15.957031 10.941406 14.75 9.734375 13.265625 9.734375 C 11.777344 9.734375 10.570312 10.941406 10.570312 12.429688 C 10.570312 13.914062 11.777344 15.125 13.265625 15.125 " fill-opacity="1" fill-rule="nonzero"/><path fill="#000000" d="M 15.769531 19.160156 L 13.761719 26.785156 C 13.703125 27.011719 13.496094 27.167969 13.265625 27.167969 C 13.03125 27.167969 12.824219 27.011719 12.765625 26.785156 L 10.753906 19.160156 C 10.546875 18.375 10.714844 17.558594 11.210938 16.914062 C 11.703125 16.273438 12.453125 15.90625 13.265625 15.90625 C 14.074219 15.90625 14.824219 16.273438 15.320312 16.914062 C 15.8125 17.558594 15.976562 18.375 15.769531 19.160156 Z M 13.265625 15.433594 C 12.304688 15.433594 11.417969 15.867188 10.835938 16.628906 C 10.25 17.386719 10.054688 18.351562 10.296875 19.277344 L 12.308594 26.90625 C 12.421875 27.339844 12.816406 27.640625 13.265625 27.640625 C 13.710938 27.640625 14.105469 27.339844 14.21875 26.90625 L 16.230469 19.277344 C 16.472656 18.351562 16.277344 17.386719 15.691406 16.628906 C 15.109375 15.867188 14.222656 15.433594 13.265625 15.433594 " fill-opacity="1" fill-rule="nonzero"/><path fill="#000000" d="M 23.8125 10.207031 C 25.035156 10.207031 26.035156 11.203125 26.035156 12.429688 C 26.035156 13.652344 25.035156 14.648438 23.8125 14.648438 C 22.585938 14.648438 21.589844 13.652344 21.589844 12.429688 C 21.589844 11.203125 22.585938 10.207031 23.8125 10.207031 Z M 23.8125 15.125 C 25.296875 15.125 26.507812 13.914062 26.507812 12.429688 C 26.507812 10.941406 25.296875 9.734375 23.8125 9.734375 C 22.324219 9.734375 21.117188 10.941406 21.117188 12.429688 C 21.117188 13.914062 22.324219 15.125 23.8125 15.125 " fill-opacity="1" fill-rule="nonzero"/><path fill="#000000" d="M 18.539062 7.71875 C 18.40625 7.71875 18.300781 7.824219 18.300781 7.957031 L 18.300781 29.542969 C 18.300781 29.675781 18.40625 29.78125 18.539062 29.78125 C 18.667969 29.78125 18.773438 29.675781 18.773438 29.542969 L 18.773438 7.957031 C 18.773438 7.824219 18.667969 7.71875 18.539062 7.71875 " fill-opacity="1" fill-rule="nonzero"/><path fill="#000000" d="M 25.234375 23.96875 C 25.125 23.96875 25.03125 24.042969 25.003906 24.144531 L 24.308594 26.785156 C 24.25 27.011719 24.046875 27.167969 23.8125 27.167969 C 23.578125 27.167969 23.375 27.011719 23.3125 26.785156 L 22.617188 24.144531 C 22.589844 24.042969 22.496094 23.96875 22.390625 23.96875 L 20.859375 23.96875 L 21.675781 20.679688 C 21.683594 20.640625 21.683594 20.601562 21.675781 20.5625 L 21.304688 19.160156 C 21.097656 18.375 21.261719 17.558594 21.757812 16.914062 C 22.25 16.273438 23 15.90625 23.8125 15.90625 C 24.621094 15.90625 25.371094 16.273438 25.867188 16.914062 C 26.359375 17.558594 26.527344 18.375 26.320312 19.160156 L 25.949219 20.5625 C 25.9375 20.601562 25.9375 20.640625 25.949219 20.679688 L 26.765625 23.96875 Z M 27.296875 24.148438 L 26.421875 20.625 L 26.777344 19.277344 C 27.019531 18.351562 26.824219 17.386719 26.242188 16.628906 C 25.65625 15.867188 24.769531 15.433594 23.8125 15.433594 C 22.851562 15.433594 21.96875 15.867188 21.382812 16.628906 C 20.796875 17.386719 20.601562 18.351562 20.847656 19.28125 L 21.199219 20.625 L 20.324219 24.148438 C 20.308594 24.21875 20.324219 24.292969 20.367188 24.351562 C 20.414062 24.40625 20.480469 24.441406 20.554688 24.441406 L 22.207031 24.441406 L 22.855469 26.90625 C 22.96875 27.339844 23.363281 27.640625 23.8125 27.640625 C 24.257812 27.640625 24.652344 27.339844 24.765625 26.90625 L 25.414062 24.441406 L 27.070312 24.441406 C 27.140625 24.441406 27.210938 24.40625 27.253906 24.351562 C 27.300781 24.292969 27.316406 24.21875 27.296875 24.148438 " fill-opacity="1" fill-rule="nonzero"/></svg>